<svg width="149" height="61" viewBox="0 0 149 61" fill="none" xmlns="http://www.w3.org/2000/svg">
<g clip-path="url(#clip0)">
<path d="M24.47 36.96C24.6533 38.0233 24.9833 38.83 25.46 39.38C25.9733 39.8933 26.67 40.15 27.55 40.15C28.9067 40.15 29.7867 39.4717 30.19 38.115C30.63 36.7217 30.85 34.5033 30.85 31.46C30.19 32.4867 29.2367 33.2933 27.99 33.88C26.7433 34.4667 25.3317 34.76 23.755 34.76C20.2717 34.76 17.4667 33.66 15.34 31.46C13.2133 29.26 12.15 26.0883 12.15 21.945C12.15 19.195 12.7183 16.8117 13.855 14.795C15.0283 12.7417 16.6783 11.165 18.805 10.065C20.9683 8.965 23.48 8.415 26.34 8.415C32.1333 8.415 36.1483 10.12 38.385 13.53C40.6583 16.94 41.795 21.7983 41.795 28.105C41.795 35.365 40.6767 40.81 38.44 44.44C36.24 48.07 32.5183 49.885 27.275 49.885C24.3783 49.885 21.885 49.28 19.795 48.07C17.705 46.86 16.0917 45.2833 14.955 43.34C13.855 41.36 13.2317 39.2333 13.085 36.96H24.47ZM26.78 25.41C27.77 25.41 28.5583 25.135 29.145 24.585C29.7317 24.035 30.025 23.265 30.025 22.275C30.025 21.175 29.7317 20.3683 29.145 19.855C28.595 19.305 27.8067 19.03 26.78 19.03C25.7533 19.03 24.9467 19.305 24.36 19.855C23.81 20.3683 23.535 21.175 23.535 22.275C23.535 23.265 23.8283 24.035 24.415 24.585C25.0017 25.135 25.79 25.41 26.78 25.41ZM57.4874 36.96C57.6707 38.0233 58.0007 38.83 58.4774 39.38C58.9907 39.8933 59.6874 40.15 60.5674 40.15C61.9241 40.15 62.8041 39.4717 63.2074 38.115C63.6474 36.7217 63.8674 34.5033 63.8674 31.46C63.2074 32.4867 62.2541 33.2933 61.0074 33.88C59.7607 34.4667 58.3491 34.76 56.7724 34.76C53.2891 34.76 50.4841 33.66 48.3574 31.46C46.2307 29.26 45.1674 26.0883 45.1674 21.945C45.1674 19.195 45.7357 16.8117 46.8724 14.795C48.0457 12.7417 49.6957 11.165 51.8224 10.065C53.9857 8.965 56.4974 8.415 59.3574 8.415C65.1507 8.415 69.1657 10.12 71.4024 13.53C73.6757 16.94 74.8124 21.7983 74.8124 28.105C74.8124 35.365 73.6941 40.81 71.4574 44.44C69.2574 48.07 65.5357 49.885 60.2924 49.885C57.3957 49.885 54.9024 49.28 52.8124 48.07C50.7224 46.86 49.1091 45.2833 47.9724 43.34C46.8724 41.36 46.2491 39.2333 46.1024 36.96H57.4874ZM59.7974 25.41C60.7874 25.41 61.5757 25.135 62.1624 24.585C62.7491 24.035 63.0424 23.265 63.0424 22.275C63.0424 21.175 62.7491 20.3683 62.1624 19.855C61.6124 19.305 60.8241 19.03 59.7974 19.03C58.7707 19.03 57.9641 19.305 57.3774 19.855C56.8274 20.3683 56.5524 21.175 56.5524 22.275C56.5524 23.265 56.8457 24.035 57.4324 24.585C58.0191 25.135 58.8074 25.41 59.7974 25.41Z" fill="#30D7BA"/>
<g clip-path="url(#clip1)">
<path d="M104.29 20.88C104.29 21.98 104 23 103.42 23.94C102.86 24.86 102.02 25.62 100.9 26.22C99.8 26.8 98.49 27.12 96.97 27.18V29.61H95.05V27.15C92.93 26.97 91.22 26.34 89.92 25.26C88.62 24.16 87.93 22.67 87.85 20.79H93.31C93.43 21.99 94.01 22.76 95.05 23.1V18.36C93.49 17.96 92.24 17.57 91.3 17.19C90.38 16.81 89.57 16.2 88.87 15.36C88.17 14.52 87.82 13.37 87.82 11.91C87.82 10.09 88.49 8.63 89.83 7.53C91.19 6.43 92.93 5.81 95.05 5.67V3.24H96.97V5.67C99.07 5.83 100.73 6.44 101.95 7.5C103.17 8.56 103.85 10.03 103.99 11.91H98.5C98.38 10.83 97.87 10.13 96.97 9.81V14.46C98.63 14.92 99.91 15.33 100.81 15.69C101.71 16.05 102.51 16.65 103.21 17.49C103.93 18.31 104.29 19.44 104.29 20.88ZM93.25 11.67C93.25 12.17 93.4 12.59 93.7 12.93C94.02 13.27 94.47 13.57 95.05 13.83V9.66C94.49 9.76 94.05 9.98 93.73 10.32C93.41 10.64 93.25 11.09 93.25 11.67ZM96.97 23.19C97.57 23.09 98.04 22.85 98.38 22.47C98.74 22.09 98.92 21.62 98.92 21.06C98.92 20.54 98.75 20.12 98.41 19.8C98.09 19.46 97.61 19.17 96.97 18.93V23.19Z" fill="#30D7BA"/>
<path d="M89.0195 47.9941V51H87.2617V42.4688H90.5898C91.2305 42.4688 91.793 42.5859 92.2773 42.8203C92.7656 43.0547 93.1406 43.3887 93.4023 43.8223C93.6641 44.252 93.7949 44.7422 93.7949 45.293C93.7949 46.1289 93.5078 46.7891 92.9336 47.2734C92.3633 47.7539 91.5723 47.9941 90.5605 47.9941H89.0195ZM89.0195 46.5703H90.5898C91.0547 46.5703 91.4082 46.4609 91.6504 46.2422C91.8965 46.0234 92.0195 45.7109 92.0195 45.3047C92.0195 44.8867 91.8965 44.5488 91.6504 44.291C91.4043 44.0332 91.0645 43.9004 90.6309 43.8926H89.0195V46.5703ZM97.8324 51.1172C96.9027 51.1172 96.1449 50.832 95.559 50.2617C94.977 49.6914 94.6859 48.9316 94.6859 47.9824V47.8184C94.6859 47.1816 94.809 46.6133 95.0551 46.1133C95.3012 45.6094 95.6488 45.2227 96.098 44.9531C96.5512 44.6797 97.0668 44.543 97.6449 44.543C98.5121 44.543 99.1937 44.8164 99.6898 45.3633C100.19 45.9102 100.44 46.6855 100.44 47.6895V48.3809H96.4027C96.4574 48.7949 96.6215 49.127 96.8949 49.377C97.1723 49.627 97.5219 49.752 97.9437 49.752C98.5961 49.752 99.1059 49.5156 99.473 49.043L100.305 49.9746C100.051 50.334 99.7074 50.6152 99.2738 50.8184C98.8402 51.0176 98.3598 51.1172 97.8324 51.1172ZM97.6391 45.9141C97.3031 45.9141 97.0297 46.0273 96.8187 46.2539C96.6117 46.4805 96.4789 46.8047 96.4203 47.2266H98.7758V47.0918C98.768 46.7168 98.6664 46.4277 98.4711 46.2246C98.2758 46.0176 97.9984 45.9141 97.6391 45.9141ZM105.069 46.248C104.839 46.2168 104.636 46.2012 104.46 46.2012C103.819 46.2012 103.399 46.418 103.2 46.8516V51H101.507V44.6602H103.106L103.153 45.416C103.493 44.834 103.964 44.543 104.565 44.543C104.753 44.543 104.929 44.5684 105.093 44.6191L105.069 46.248ZM106.523 51.7324H105.263L108.404 42.4688H109.663L106.523 51.7324ZM115.254 44.6602L115.307 45.3691C115.756 44.8184 116.363 44.543 117.129 44.543C117.945 44.543 118.506 44.8652 118.811 45.5098C119.256 44.8652 119.891 44.543 120.715 44.543C121.402 44.543 121.914 44.7441 122.25 45.1465C122.586 45.5449 122.754 46.1465 122.754 46.9512V51H121.055V46.957C121.055 46.5977 120.984 46.3359 120.844 46.1719C120.703 46.0039 120.455 45.9199 120.1 45.9199C119.592 45.9199 119.24 46.1621 119.045 46.6465L119.051 51H117.357V46.9629C117.357 46.5957 117.285 46.3301 117.141 46.166C116.996 46.002 116.75 45.9199 116.402 45.9199C115.922 45.9199 115.574 46.1191 115.359 46.5176V51H113.666V44.6602H115.254ZM123.897 47.7715C123.897 47.1426 124.018 46.582 124.26 46.0898C124.502 45.5977 124.85 45.2168 125.303 44.9473C125.76 44.6777 126.289 44.543 126.891 44.543C127.746 44.543 128.444 44.8047 128.983 45.3281C129.526 45.8516 129.829 46.5625 129.891 47.4609L129.903 47.8945C129.903 48.8672 129.631 49.6484 129.088 50.2383C128.545 50.8242 127.817 51.1172 126.903 51.1172C125.989 51.1172 125.258 50.8242 124.711 50.2383C124.168 49.6523 123.897 48.8555 123.897 47.8477V47.7715ZM125.59 47.8945C125.59 48.4961 125.704 48.957 125.93 49.2773C126.157 49.5938 126.481 49.752 126.903 49.752C127.313 49.752 127.633 49.5957 127.864 49.2832C128.094 48.9668 128.209 48.4629 128.209 47.7715C128.209 47.1816 128.094 46.7246 127.864 46.4004C127.633 46.0762 127.309 45.9141 126.891 45.9141C126.477 45.9141 126.157 46.0762 125.93 46.4004C125.704 46.7207 125.59 47.2188 125.59 47.8945ZM132.604 44.6602L132.657 45.3926C133.11 44.8262 133.718 44.543 134.479 44.543C135.151 44.543 135.651 44.7402 135.979 45.1348C136.307 45.5293 136.475 46.1191 136.483 46.9043V51H134.79V46.9453C134.79 46.5859 134.712 46.3262 134.555 46.166C134.399 46.002 134.139 45.9199 133.776 45.9199C133.3 45.9199 132.942 46.123 132.704 46.5293V51H131.011V44.6602H132.604ZM139.9 43.1016V44.6602H140.984V45.9023H139.9V49.0664C139.9 49.3008 139.945 49.4688 140.034 49.5703C140.124 49.6719 140.296 49.7227 140.55 49.7227C140.737 49.7227 140.904 49.709 141.048 49.6816V50.9648C140.716 51.0664 140.374 51.1172 140.023 51.1172C138.835 51.1172 138.23 50.5176 138.206 49.3184V45.9023H137.28V44.6602H138.206V43.1016H139.9ZM143.679 45.3516C144.129 44.8125 144.693 44.543 145.373 44.543C146.748 44.543 147.445 45.3418 147.464 46.9395V51H145.771V46.9863C145.771 46.623 145.693 46.3555 145.537 46.1836C145.38 46.0078 145.121 45.9199 144.757 45.9199C144.261 45.9199 143.902 46.1113 143.679 46.4941V51H141.986V42H143.679V45.3516Z" fill="#5C5C5C"/>
</g>
</g>
<defs>
<clipPath id="clip0">
<rect width="148" height="61" fill="white" transform="translate(0.5)"/>
</clipPath>
<clipPath id="clip1">
<rect width="62" height="61" fill="white" transform="translate(86.5)"/>
</clipPath>
</defs>
</svg>
