<svg width="33" height="33" viewBox="0 0 33 33" fill="none" xmlns="http://www.w3.org/2000/svg">
<path d="M31.7103 0.489624H2.25117C1.54271 0.489624 0.970337 1.062 0.970337 1.77046V31.2296C0.970337 31.938 1.54271 32.5104 2.25117 32.5104H31.7103C32.4187 32.5104 32.9911 31.938 32.9911 31.2296V1.77046C32.9911 1.062 32.4187 0.489624 31.7103 0.489624ZM28.0119 9.83569H25.4542C23.4489 9.83569 23.0607 10.7883 23.0607 12.1892V15.2752H27.8478L27.2234 20.1064H23.0607V32.5104H18.0694V20.1104H13.8947V15.2752H18.0694V11.7129C18.0694 7.57822 20.5951 5.32476 24.2855 5.32476C26.0546 5.32476 27.5716 5.45685 28.0159 5.51689V9.83569H28.0119Z" fill="white"/>
</svg>
