<svg width="33" height="33" viewBox="0 0 33 33" fill="none" xmlns="http://www.w3.org/2000/svg">
<path d="M31.6981 0.489624H2.23902C1.53056 0.489624 0.958191 1.062 0.958191 1.77046V31.2296C0.958191 31.938 1.53056 32.5104 2.23902 32.5104H31.6981C32.4066 32.5104 32.979 31.938 32.979 31.2296V1.77046C32.979 1.062 32.4066 0.489624 31.6981 0.489624ZM10.4564 27.7753H5.70527V12.4934H10.4564V27.7753ZM8.08281 10.4041C7.53817 10.4041 7.00575 10.2425 6.55289 9.93996C6.10003 9.63737 5.74707 9.20729 5.53865 8.7041C5.33022 8.20091 5.27568 7.64722 5.38194 7.11303C5.4882 6.57885 5.75047 6.08817 6.13559 5.70305C6.52072 5.31792 7.01139 5.05565 7.54558 4.9494C8.07976 4.84314 8.63345 4.89768 9.13664 5.1061C9.63983 5.31453 10.0699 5.66749 10.3725 6.12035C10.6751 6.57321 10.8366 7.10562 10.8366 7.65027C10.8326 9.17126 9.5998 10.4041 8.08281 10.4041ZM28.2439 27.7753H23.4968V20.3425C23.4968 18.5694 23.4648 16.2919 21.0272 16.2919C18.5576 16.2919 18.1774 18.2211 18.1774 20.2144V27.7753H13.4343V12.4934H17.9892V14.5828H18.0533C18.6857 13.382 20.2347 12.1132 22.5482 12.1132C27.3593 12.1132 28.2439 15.2792 28.2439 19.3939V27.7753Z" fill="white"/>
</svg>
