<svg width="34" height="29" viewBox="0 0 34 29" fill="none" xmlns="http://www.w3.org/2000/svg">
<path d="M33.645 4.18542C32.4202 4.71376 31.0873 5.09401 29.7144 5.2421C31.1398 4.3953 32.2072 3.05748 32.7164 1.47966C31.3788 2.27533 29.9136 2.83327 28.3855 3.12873C27.7469 2.44599 26.9745 1.90209 26.1165 1.53092C25.2585 1.15975 24.3332 0.969265 23.3983 0.97133C19.6159 0.97133 16.5739 4.03732 16.5739 7.79976C16.5739 8.3281 16.6379 8.85645 16.742 9.36478C11.0783 9.06858 6.02705 6.36283 2.66887 2.22014C2.05697 3.26528 1.73632 4.45529 1.74026 5.66638C1.74026 8.03591 2.94505 10.1253 4.78224 11.3541C3.69955 11.3114 2.64222 11.0138 1.69624 10.4855V10.5696C1.69624 13.8877 4.04176 16.6375 7.16779 17.2699C6.58084 17.4224 5.97704 17.5004 5.37062 17.5021C4.92633 17.5021 4.50606 17.458 4.08178 17.398C4.94634 20.1037 7.46398 22.069 10.4619 22.1331C8.1164 23.9703 5.17849 25.051 1.98843 25.051C1.41605 25.051 0.887711 25.0309 0.339355 24.9669C3.36532 26.9082 6.95565 28.0289 10.8222 28.0289C23.3743 28.0289 30.2428 17.6301 30.2428 8.60428C30.2428 8.30809 30.2428 8.0119 30.2227 7.71571C31.5516 6.74308 32.7164 5.53829 33.645 4.18542Z" fill="white"/>
</svg>
